<svg id="Layer_1" data-name="Layer 1" xmlns="http://www.w3.org/2000/svg" viewBox="0 0 340.6 60.41"><defs><style>.cls-1{fill:#fff;}</style></defs><title>logo</title><path id="logo" class="cls-1" d="M40.57,45.55a3.39,3.39,0,0,1,.22,1c0,.18,0,.59-.06,1.21s-.09,1.45-.16,2.48c-.18,2.76-.42,5.14-.7,7.12s-1,3.33-2.06,4a18.36,18.36,0,0,1-4,1.9q-2.34.82-5,1.49-4.39,1-11.64,2.08L15.65,58a82.4,82.4,0,0,0,15.78-2.36A23.78,23.78,0,0,0,31.68,52c0-1.37,0-2.64-.11-3.82L19.09,43.65A3.37,3.37,0,0,1,17.2,42a10.35,10.35,0,0,1-.95-3.18,44.79,44.79,0,0,1-.71-6.61c0-2.42.06-4.16.18-5.24q.28-2.88,3.69-3.9A111.53,111.53,0,0,1,38.18,18.3l2.15,8.47-4.5.64a111.76,111.76,0,0,0-11.11,2.11,16.84,16.84,0,0,0-.14,2.39c0,2,.05,3.59.14,4.74l13,5.7A5,5,0,0,1,40.57,45.55ZM88.76,31.63a3.87,3.87,0,0,0-1.71-.95H78.58l-6,5.23a6.88,6.88,0,0,0-2.28-3.86,3.72,3.72,0,0,0-2.57-1.37h-7L54.53,36,53.3,30.68l-7.48.95.63,33.89,7.7-.5,1-24.57,2.39-.84a14.33,14.33,0,0,1,5-.78A6,6,0,0,1,64.1,39l.14,27,7.56-.63,1.09-24.79,2.46-.91a13.63,13.63,0,0,1,4.81-.78,6.1,6.1,0,0,1,1.59.14l.14,27,7.84-.63L91,34.65a2.31,2.31,0,0,0-.48-1.44A9,9,0,0,0,88.76,31.63Zm15.63,26a21.74,21.74,0,0,1-.14-2.78,15.77,15.77,0,0,1,.39-3.1,62.12,62.12,0,0,1,6.43-1.4l2-.39.21,6,7.49-.73L120.63,36a3.3,3.3,0,0,0-2.32-3.41,70,70,0,0,0-13-2.92l-5.94-.88-1.87,7.7q3.73.6,7.51,1t7.61,1.18l.14,5-7.31.81a45.43,45.43,0,0,0-7,1.27c-.52.12-1,.72-1.34,1.83a23.66,23.66,0,0,0-.91,9.38c.33,3.94,1,6.1,2,6.47q8.24,2.92,22.71,4.4l1.58-7.56-2.88-.32A151.75,151.75,0,0,1,104.39,57.61Zm36.32-27.5L135.33,36l-1.23-5.34-7.49.77.07,6.5.56,27.57,8-.71.49-24c1.88-.45,3.69-.86,5.45-1.23l5.52-1.2-1.76-8.23Zm15.75,27.64.67-19,9.35-.71-.67-8L157,31.7v-11l-8.58,1.65.42,38.32a3.19,3.19,0,0,0,2.39,3.16,97.33,97.33,0,0,0,13.68,4l1.86-7.35c-.7-.19-2.64-.66-5.8-1.41Q159.07,58.56,156.46,57.75Zm42.88-26.58.7,34.7,7.49-.64.81-23.34c.07-2.2.1-4.12.1-5.76s-.05-3.67-.17-6.09Zm41.13.53a3.39,3.39,0,0,0-1.86-1H230L223.78,36l-1.24-5.34-7.48.95.63,33.89,7.49-.57.95-24.39,2.6-1a15.48,15.48,0,0,1,2.71-.67,12.51,12.51,0,0,1,2.67-.28,3.62,3.62,0,0,1,1.16.14l.14,27.14,7.84-.63,1.23-30.66C242.48,33.78,241.81,32.8,240.47,31.7ZM269,59.26c1.55.23,3.13.5,4.75.81l-2.07,7.7a145.53,145.53,0,0,1-20.54-4.89c-1.66-.54-2.52-1.51-2.56-2.92l-.25-18.14q0-4.71,1-5.45c.65-.49,1.39-1,2.21-1.49s1.72-1,2.71-1.5,2-1,3.07-1.4,2.12-.85,3.15-1.2a17.09,17.09,0,0,1,4.94-1.12,18.87,18.87,0,0,1,2.65.15,8.52,8.52,0,0,1,1.87.51,3.17,3.17,0,0,1,2.18,2.36,114.47,114.47,0,0,1,1.16,17.51v2.07l-16.84.21V57q2.75.68,6.54,1.23ZM256.23,46.43l9.07-1V44.7a39.31,39.31,0,0,0-.67-7,14.73,14.73,0,0,0-2.25.14,17.16,17.16,0,0,0-1.69.39c-.56.16-1.13.35-1.72.56a10.81,10.81,0,0,0-2.74,1.27Zm66.11-14.8a3.9,3.9,0,0,0-1.7-.95h-8.48l-6,5.23a7,7,0,0,0-2.29-3.86,3.7,3.7,0,0,0-2.56-1.37h-7L288.12,36l-1.23-5.34-7.49.95L280,65.52l7.7-.5.95-24.57,2.39-.84a14.33,14.33,0,0,1,5-.78,6,6,0,0,1,1.58.14l.14,27,7.56-.63,1.09-24.79,2.46-.91a13.65,13.65,0,0,1,4.82-.78,6,6,0,0,1,1.58.14l.14,27,7.84-.63,1.23-30.66a2.31,2.31,0,0,0-.48-1.44A9,9,0,0,0,322.34,31.63Zm30.92,28.26A152.21,152.21,0,0,1,338,57.61a21.74,21.74,0,0,1-.14-2.78,15.77,15.77,0,0,1,.39-3.1,62.69,62.69,0,0,1,6.43-1.4l2-.39.22,6,7.48-.73L354.21,36a3.3,3.3,0,0,0-2.32-3.41,70,70,0,0,0-13-2.92L333,28.74l-1.86,7.7q3.72.6,7.5,1t7.61,1.18l.14,5-7.31.81a45.43,45.43,0,0,0-7,1.27c-.52.12-1,.72-1.34,1.83a23.66,23.66,0,0,0-.91,9.38q.5,5.91,2,6.47,8.23,2.92,22.71,4.4l1.59-7.56ZM180.49,30.25a50.66,50.66,0,0,0-1,11.43q0,9.78,1.19,14.41c1,.24,2.05.47,3.2.71l7.24,1.47,3.41.64-2,8.12c-2.11-.38-4-.78-5.77-1.2q-9.88-2.35-11.34-2.86a8.44,8.44,0,0,1-1.81-.78,2.77,2.77,0,0,1-.63-.68q-1.59-2.4-2.29-14.2c-.11-1.76-.17-3.49-.17-5.17s0-3.25.1-4.7.17-2.8.28-4.09a31.84,31.84,0,0,1,.71-5.24l.42-1.34a4.1,4.1,0,0,1,2.57-2.49q.87-.36,2.28-.81l3.1-1.06c1.14-.35,2.34-.7,3.58-1.05l3.59-1.05q3.61-1,6.11-1.55L240.58,7.35l-3.06,11.16a1,1,0,0,1-.75.7l-37.43,7.34h0Zm38.44-8.72h0a.28.28,0,0,0,.32.35h0l1.91-.37,6.48-1.27h0a.86.86,0,0,0,.66-.61h0l2.35-8.56a.35.35,0,0,0-.42-.43h0L223,12.37l-1.33.32a.57.57,0,0,0-.41.4h0Zm-16.21-4.27h0a.6.6,0,0,0-.44.44l-2,7.42a.33.33,0,0,0,.39.42l8.31-1.63a.87.87,0,0,0,.66-.61l2.13-7.79a.28.28,0,0,0-.33-.34h0Z" transform="translate(-15.54 -7.35)"/></svg>