<?xml version="1.0" encoding="utf-8"?>
<!-- Generator: Adobe Illustrator 22.1.0, SVG Export Plug-In . SVG Version: 6.00 Build 0)  -->
<svg version="1.1" id="Layer_1" xmlns="http://www.w3.org/2000/svg" xmlns:xlink="http://www.w3.org/1999/xlink" x="0px" y="0px"
	 viewBox="0 0 342.9 61.7" style="enable-background:new 0 0 342.9 61.7;" xml:space="preserve">
<style type="text/css">
	.st0{display:none;}
	.st1{display:inline;fill:#231F20;}
	.st2{font-family:'PasseroOne-Regular';}
	.st3{font-size:72px;}
	.st4{letter-spacing:-2;}
	.st5{fill:#DD3726;}
</style>
<text transform="matrix(1 0 0 1 -14.4634 -17.3332)" class="st0"><tspan x="0" y="0" class="st1 st2 st3 st4">Smar</tspan><tspan x="131.5" y="0" class="st1 st2 st3 st4">t</tspan><tspan x="154.4" y="0" class="st1 st2 st3 st4">Cinema</tspan></text>
<g>
	<path class="st5" d="M142.1,51l0.7-19l9.4-0.7l-0.7-8l-8.8,1.7v-11l-8.6,1.7l0.4,38.3c0,1.5,0.8,2.6,2.4,3.2
		c3.9,1.5,8.5,2.8,13.7,4l1.9-7.3c-0.7-0.2-2.6-0.7-5.8-1.4C145.3,52,143.8,51.6,142.1,51z"/>
	<path class="st5" d="M126.3,23.4l-5.4,5.9l-1.2-5.3l-7.5,0.8l0.1,6.5l0.6,27.6l7.9-0.7l0.5-24c1.9-0.4,3.7-0.9,5.4-1.2l5.5-1.2
		l-1.8-8.2H126.3z"/>
	<path class="st5" d="M90,50.9c-0.1-0.7-0.1-1.6-0.1-2.8c0-0.8,0.1-1.9,0.4-3.1c2-0.6,4.2-1,6.4-1.4l2-0.4l0.2,6l7.5-0.7l-0.1-19.3
		c0-1.7-0.8-2.8-2.3-3.4c-3.2-1.1-7.5-2.1-13-2.9L85,22l-1.9,7.7c2.5,0.4,5,0.7,7.5,1c2.5,0.3,5.1,0.7,7.6,1.2l0.1,5l-7.3,0.8
		c-2.4,0.3-4.8,0.7-7,1.3c-0.5,0.1-1,0.7-1.3,1.8c-0.9,2.6-1.2,5.8-0.9,9.4c0.3,3.9,1,6.1,2,6.5c5.5,1.9,13.1,3.4,22.7,4.4l1.6-7.6
		l-2.9-0.3C98.4,52.4,93.3,51.6,90,50.9z"/>
	<path class="st5" d="M74.4,24.9C73.6,24.3,73,24,72.7,24h-8.5l-6,5.2c-0.2-1.2-0.9-2.5-2.3-3.9C55,24.4,54.1,24,53.3,24h-7
		l-6.2,5.3L38.9,24l-7.5,0.9l0.6,33.9l7.7-0.5l0.9-24.6l2.4-0.8c1.4-0.5,3.1-0.8,5-0.8c0.8,0,1.3,0,1.6,0.1l0.1,27l7.6-0.6l1.1-24.8
		l2.5-0.9c1.4-0.5,3-0.8,4.8-0.8c0.8,0,1.3,0,1.6,0.1l0.1,27l7.8-0.6l1.2-30.7c0-0.5-0.2-1-0.5-1.4S75.2,25.5,74.4,24.9z"/>
	<path class="st5" d="M23.3,35.6l-13-5.7c-0.1-1.1-0.1-2.7-0.1-4.7c0-1,0-1.8,0.1-2.4c3-0.8,6.7-1.5,11.1-2.1l4.5-0.6l-2.1-8.5
		c-7.2,1.2-13.5,2.8-18.8,4.7c-2.3,0.7-3.5,2-3.7,3.9c-0.1,1.1-0.2,2.8-0.2,5.2c0,1.5,0.2,3.7,0.7,6.6c0.2,1.3,0.5,2.4,0.9,3.2
		s1.1,1.4,1.9,1.7l12.5,4.5c0.1,1.2,0.1,2.4,0.1,3.8s-0.1,2.6-0.2,3.7c-3.7,1.1-8.9,1.8-15.8,2.4l1.5,8.8c4.8-0.7,8.7-1.4,11.6-2.1
		c1.8-0.4,3.5-0.9,5-1.5c1.6-0.6,2.9-1.2,4-1.9s1.8-2.1,2.1-4s0.5-4.4,0.7-7.1c0.1-1,0.1-1.9,0.2-2.5s0.1-1,0.1-1.2
		s-0.1-0.5-0.2-0.9C25.7,37.3,24.8,36.2,23.3,35.6z"/>
	<path class="st5" d="M226.1,25c-0.8-0.7-1.4-1-1.9-1h-8.6l-6.2,5.3l-1.2-5.3l-7.5,0.9l0.6,33.9l7.5-0.6l0.9-24.4l2.6-0.9
		c0.7-0.3,1.6-0.5,2.7-0.7c0.5-0.1,0.9-0.2,1.3-0.2c0.4,0,0.9-0.1,1.4-0.1s0.9,0,1.2,0.1l0.1,27.1l7.8-0.6l1.2-30.7
		C228.1,27.1,227.4,26.1,226.1,25z"/>
	<path class="st5" d="M308,24.9c-0.8-0.6-1.4-0.9-1.7-0.9h-8.5l-6,5.2c-0.2-1.2-0.9-2.5-2.3-3.9c-0.9-0.9-1.7-1.4-2.6-1.4h-7
		l-6.2,5.3l-1.2-5.3l-7.5,0.9l0.6,33.9l7.7-0.5l0.9-24.6l2.4-0.8c1.4-0.5,3.1-0.8,5-0.8c0.8,0,1.3,0,1.6,0.1l0.1,27l7.6-0.6
		l1.1-24.8l2.5-0.9c1.4-0.5,3-0.8,4.8-0.8c0.8,0,1.3,0,1.6,0.1l0.1,27l7.8-0.6l1.2-30.7c0-0.5-0.2-1-0.5-1.4S308.8,25.5,308,24.9z"
		/>
	<path class="st5" d="M338.9,53.2c-6.9-0.8-12-1.5-15.3-2.3c-0.1-0.7-0.1-1.6-0.1-2.8c0-0.8,0.1-1.9,0.4-3.1c2-0.6,4.2-1,6.4-1.4
		l2-0.4l0.2,6l7.5-0.7l-0.1-19.3c0-1.7-0.8-2.8-2.3-3.4c-3.2-1.1-7.5-2.1-13-2.9l-5.9-0.9l-1.9,7.7c2.5,0.4,5,0.7,7.5,1
		s5.1,0.7,7.6,1.2l0.1,5l-7.3,0.8c-2.4,0.3-4.8,0.7-7,1.3c-0.5,0.1-1,0.7-1.3,1.8c-0.9,2.6-1.2,5.8-0.9,9.4c0.3,3.9,1,6.1,2,6.5
		c5.5,1.9,13.1,3.4,22.7,4.4l1.6-7.6L338.9,53.2z"/>
	<path class="st5" d="M185,19.8L185,19.8l33.2-6.5c3-0.6,5.3-2.8,6.1-5.7l0.6-2.1l1.3-4.9L179,12c-1.7,0.4-3.7,0.9-6.1,1.5l-3.6,1.1
		c-1.2,0.4-2.4,0.7-3.6,1.1l-3.1,1.1c-0.9,0.3-1.7,0.6-2.3,0.8c-1.3,0.5-2.2,1.4-2.6,2.5l-0.4,1.3c-0.2,0.6-0.4,2.3-0.7,5.2
		c-0.1,1.3-0.2,2.7-0.3,4.1c-0.1,1.4-0.1,3-0.1,4.7s0.1,3.4,0.2,5.2c0.5,7.9,1.2,12.6,2.3,14.2c0.2,0.3,0.4,0.5,0.6,0.7
		c0.2,0.2,0.8,0.4,1.8,0.8c1,0.3,4.8,1.3,11.3,2.9c1.7,0.4,3.7,0.8,5.8,1.2l2-8.1l-3.4-0.6l-7.2-1.5c-1.1-0.2-2.2-0.5-3.2-0.7
		c-0.8-3.1-1.2-7.9-1.2-14.4c0-5,0.3-8.8,1-11.4L185,19.8z M204.6,14.8C204.6,14.8,204.6,14.8,204.6,14.8l2.3-8.4
		c0.1-0.2,0.2-0.4,0.4-0.4l1.3-0.3l7.3-1.8c0,0,0,0,0,0c0.3-0.1,0.5,0.2,0.4,0.4l-2.3,8.6l0,0c-0.1,0.3-0.3,0.5-0.7,0.6l0,0
		l-6.5,1.3l-1.9,0.4h0C204.7,15.2,204.5,15,204.6,14.8z M185.9,18.4l2-7.4c0.1-0.2,0.2-0.4,0.4-0.4c0,0,0,0,0,0l8.7-2.1h0
		c0.2,0,0.4,0.1,0.3,0.3l-2.1,7.8c-0.1,0.3-0.3,0.5-0.7,0.6l-8.3,1.6C186,18.9,185.8,18.6,185.9,18.4z"/>
	<path class="st5" d="M185,24.5l0.7,34.7l7.5-0.6l0.8-23.3c0.1-2.2,0.1-4.1,0.1-5.8s-0.1-3.7-0.2-6.1L185,24.5z"/>
	<path class="st5" d="M248.5,51.6c-2.5-0.4-4.7-0.8-6.5-1.2v-4.6l16.8-0.2v-2.1c0-6.8-0.4-12.6-1.2-17.5c-0.2-1-0.9-1.8-2.2-2.4
		c-0.6-0.2-1.2-0.4-1.9-0.5s-1.6-0.2-2.7-0.2s-2.7,0.4-4.9,1.1c-1,0.4-2.1,0.8-3.1,1.2s-2.1,0.9-3.1,1.4s-1.9,1-2.7,1.5
		s-1.6,1-2.2,1.5s-1,2.3-1,5.4l0.2,18.1c0,1.4,0.9,2.4,2.6,2.9c7.2,2.3,14.1,3.9,20.5,4.9l2.1-7.7c-1.6-0.3-3.2-0.6-4.7-0.8
		L248.5,51.6z M241.9,33.4c0.4-0.4,1.4-0.8,2.7-1.3c0.6-0.2,1.2-0.4,1.7-0.6s1.1-0.3,1.7-0.4s1.3-0.1,2.3-0.1c0.4,2.4,0.7,4.8,0.7,7
		v0.7l-9.1,1V33.4z"/>
</g>
</svg>
